<?xml version="1.0" encoding="utf-8"?>
<!-- Generator: Adobe Illustrator 18.1.1, SVG Export Plug-In . SVG Version: 6.00 Build 0)  -->
<!DOCTYPE svg PUBLIC "-//W3C//DTD SVG 1.1//EN" "http://www.w3.org/Graphics/SVG/1.1/DTD/svg11.dtd">
<svg version="1.1" id="Layer_1" xmlns="http://www.w3.org/2000/svg" xmlns:xlink="http://www.w3.org/1999/xlink" x="0px" y="0px"
	 viewBox="0 0 50 50" enable-background="new 0 0 50 50" xml:space="preserve">
<g>
	<path d="M36.4,13.9c0-0.1,0-0.1-0.1-0.1c0,0-0.1-0.1-0.1-0.1c0,0,0-0.1-0.1-0.1c0,0,0,0-0.1,0c0,0,0,0-0.1,0H14c0,0,0,0-0.1,0
		c0,0,0,0-0.1,0c0,0-0.1,0-0.1,0.1c0,0-0.1,0-0.1,0.1c0,0,0,0.1-0.1,0.1c0,0,0,0.1,0,0.1v22c0,0.2,0.2,0.4,0.4,0.4h22
		c0.2,0,0.4-0.2,0.4-0.4L36.4,13.9C36.4,14,36.4,13.9,36.4,13.9z M25,24C25,24,25,24,25,24C25,24,25,24,25,24c0.3,0,0.5,0.1,0.7,0.3
		c0.2,0.2,0.3,0.4,0.3,0.7c0,0.3-0.1,0.5-0.3,0.7c-0.4,0.4-1,0.4-1.4,0c-0.4-0.4-0.4-1,0-1.4C24.5,24.1,24.7,24,25,24z M25,23.2
		C25,23.2,25,23.2,25,23.2c-0.4,0-0.7,0.2-1,0.3v-0.9H26v0.7C25.7,23.3,25.3,23.2,25,23.2z M24,21.8V21c0.3,0.2,0.6,0.3,1,0.3
		c0.4,0,0.7-0.1,1-0.3v0.9H24z M24.3,18.8c0.2-0.2,0.4-0.3,0.7-0.3c0.3,0,0.5,0.1,0.7,0.3c0.2,0.2,0.3,0.4,0.3,0.7
		c0,0.3-0.1,0.5-0.3,0.7c-0.4,0.4-1,0.4-1.4,0C23.9,19.8,23.9,19.2,24.3,18.8z M26.8,19.5c0-0.5-0.2-0.9-0.5-1.3
		c-0.7-0.7-1.9-0.7-2.5,0c-0.3,0.3-0.5,0.8-0.5,1.3c0,0,0,0,0,0v2.3h-5.4c-0.6,0-1.2-0.5-1.4-1l-1.9-6.4h20.9l-1.9,6.4
		c-0.2,0.6-0.8,1-1.4,1h-5.4V19.5z M14.4,35.6V16.9l1.2,4.2c0.3,0.9,1.2,1.6,2.2,1.6h5.4V25c0,0,0,0,0,0c0,0.5,0.2,0.9,0.5,1.3
		c0.3,0.3,0.8,0.5,1.3,0.5c0.5,0,0.9-0.2,1.3-0.5c0.3-0.3,0.5-0.8,0.5-1.3v-0.1c0.3,0.4,0.6,0.9,0.6,1.5c0,0.2,0.2,0.4,0.4,0.4
		c0.2,0,0.4-0.2,0.4-0.4c0-1.1-0.5-2-1.4-2.6v-1.1h5.4c1,0,1.9-0.7,2.2-1.6l1.2-4.2v18.7H14.4z"/>
</g>
</svg>
