<?xml version="1.0" encoding="utf-8"?>
<!-- Generator: Adobe Illustrator 18.1.0, SVG Export Plug-In . SVG Version: 6.00 Build 0)  -->
<!DOCTYPE svg PUBLIC "-//W3C//DTD SVG 1.1//EN" "http://www.w3.org/Graphics/SVG/1.1/DTD/svg11.dtd">
<svg version="1.1" id="Layer_1" xmlns="http://www.w3.org/2000/svg" xmlns:xlink="http://www.w3.org/1999/xlink" x="0px" y="0px"
	 viewBox="0 0 22.8 25.2" enable-background="new 0 0 22.8 25.2" xml:space="preserve">
<g>
	<path fill="#EC6470" d="M22.8,16.5C22.8,16.5,22.8,16.4,22.8,16.5L18.7,3c-0.1-0.2-0.2-0.3-0.4-0.3h0l-1.4,0
		c-0.2,0-0.4,0.2-0.4,0.4c0,0.2,0.2,0.4,0.4,0.4h0l1.1,0l3.9,12.6h-6.5c-0.1,0-0.2,0-0.3,0.1l-3.6,3.8l-3.8-3.8
		c-0.1-0.1-0.2-0.1-0.3-0.1H1L4.8,3.6l1.1,0h0c0.2,0,0.4-0.2,0.4-0.4c0-0.2-0.2-0.4-0.4-0.4l-1.4,0h0C4.4,2.7,4.2,2.9,4.1,3L0,16.4
		c0,0,0,0,0,0.1c0,0,0,0,0,0.1v8.3c0,0.2,0.2,0.4,0.4,0.4h22c0.2,0,0.4-0.2,0.4-0.4L22.8,16.5C22.8,16.5,22.8,16.5,22.8,16.5z
		 M22,24.4H0.8v-7.4h6.3l4,4c0.1,0.1,0.2,0.1,0.3,0.1c0.1,0,0.2,0,0.3-0.1l3.8-4H22V24.4z"/>
	<path fill="#EC6470" d="M9,3.5L11,1.4v15.1c0,0.2,0.2,0.4,0.4,0.4c0.2,0,0.4-0.2,0.4-0.4V1.4l2.1,2.1c0.1,0.1,0.2,0.1,0.3,0.1
		c0.1,0,0.2,0,0.3-0.1c0.2-0.2,0.2-0.4,0-0.6l-2.8-2.8c-0.2-0.2-0.4-0.2-0.6,0L8.4,2.9C8.2,3,8.2,3.3,8.4,3.5C8.5,3.6,8.8,3.6,9,3.5
		z"/>
</g>
</svg>
