<?xml version="1.0" encoding="utf-8"?>
<!-- Generator: Adobe Illustrator 18.1.0, SVG Export Plug-In . SVG Version: 6.00 Build 0)  -->
<!DOCTYPE svg PUBLIC "-//W3C//DTD SVG 1.1//EN" "http://www.w3.org/Graphics/SVG/1.1/DTD/svg11.dtd">
<svg version="1.1" id="Layer_1" xmlns="http://www.w3.org/2000/svg" xmlns:xlink="http://www.w3.org/1999/xlink" x="0px" y="0px"
	 viewBox="0 0 16.5 22.9" enable-background="new 0 0 16.5 22.9" xml:space="preserve">
<g>
	<path fill="#FFFFFF" d="M0,22.9h16.5V0H0V22.9z M0.8,0.8h14.8v21.3H0.8V0.8z"/>
	<path fill="#FFFFFF" d="M12.4,5.6c-0.2,0-0.4,0.2-0.4,0.4v7.5L8.6,7.1c0,0-0.1,0-0.1-0.1c0,0,0-0.1-0.1-0.1c0,0,0,0,0,0
		C8.3,7,8.3,7,8.2,7C8.2,7,8.1,7,8.1,7c0,0,0,0,0,0C8,7,8,7,8,7.1c0,0-0.1,0-0.1,0.1l-4.1,8.3c-0.1,0.2,0,0.4,0.2,0.5
		C4,16,4,16,4.1,16c0.1,0,0.3-0.1,0.4-0.2l1.9-3.9h3.8l1.8,3.3v2.3c0,0.2,0.2,0.4,0.4,0.4c0.2,0,0.4-0.2,0.4-0.4V6
		C12.8,5.7,12.6,5.6,12.4,5.6z M6.8,11.1l1.4-2.8l1.5,2.8H6.8z"/>
</g>
</svg>
