<?xml version="1.0" encoding="utf-8"?>
<!-- Generator: Adobe Illustrator 18.1.0, SVG Export Plug-In . SVG Version: 6.00 Build 0)  -->
<!DOCTYPE svg PUBLIC "-//W3C//DTD SVG 1.1//EN" "http://www.w3.org/Graphics/SVG/1.1/DTD/svg11.dtd">
<svg version="1.1" id="Layer_1" xmlns="http://www.w3.org/2000/svg" xmlns:xlink="http://www.w3.org/1999/xlink" x="0px" y="0px"
	 viewBox="0 0 22.7 22.7" enable-background="new 0 0 22.7 22.7" xml:space="preserve">
<g>
	<path fill="#FFFFFF" d="M15.5,14.9c-0.1-0.1-0.1-0.1-0.2-0.1c1.5-1.6,2.4-3.7,2.4-6c0-2.4-0.9-4.6-2.6-6.2C13.4,0.9,11.2,0,8.8,0
		C6.5,0,4.2,0.9,2.6,2.6C0.9,4.2,0,6.5,0,8.8c0,2.4,0.9,4.6,2.6,6.2c1.7,1.7,3.9,2.6,6.2,2.6c2.2,0,4.3-0.9,6-2.4
		c0,0.1,0,0.2,0.1,0.2l7.1,7.1c0.1,0.1,0.2,0.1,0.3,0.1c0.1,0,0.2,0,0.3-0.1c0.2-0.2,0.2-0.4,0-0.6L15.5,14.9z M14.5,14.5
		C13,16,11,16.8,8.8,16.8c-2.1,0-4.1-0.8-5.7-2.3C1.7,13,0.8,11,0.8,8.8c0-2.1,0.8-4.1,2.3-5.7c1.5-1.5,3.5-2.3,5.7-2.3
		c2.1,0,4.1,0.8,5.7,2.3c1.5,1.5,2.3,3.5,2.3,5.7C16.8,11,16,13,14.5,14.5z"/>
	<path fill="#FFFFFF" d="M2.2,8.8H3C3,5.6,5.6,3,8.8,3V2.2C5.1,2.2,2.2,5.1,2.2,8.8z"/>
</g>
</svg>
