<?xml version="1.0" encoding="utf-8"?>
<!-- Generator: Adobe Illustrator 18.1.0, SVG Export Plug-In . SVG Version: 6.00 Build 0)  -->
<!DOCTYPE svg PUBLIC "-//W3C//DTD SVG 1.1//EN" "http://www.w3.org/Graphics/SVG/1.1/DTD/svg11.dtd">
<svg version="1.1" id="Layer_1" xmlns="http://www.w3.org/2000/svg" xmlns:xlink="http://www.w3.org/1999/xlink" x="0px" y="0px"
	 viewBox="0 0 22.8 23.9" enable-background="new 0 0 22.8 23.9" xml:space="preserve">
<g>
	<path fill="#9bb4b4" d="M11.3,5.2c-3.6,0-6.5,2.9-6.5,6.5c0,2,0.9,3.9,2.5,5.1c0,0,0.1,0.1,0.1,0.1c0,0,0.9,0.6,0.9,1.7
		c0,0,0,0,0,0c0,0,0,0,0,0l1.1,4.9c0,0.2,0.2,0.3,0.4,0.3h3.2c0.2,0,0.4-0.1,0.4-0.3l1.1-4.9c0,0,0,0,0,0c0,0,0,0,0,0
		c0-1.1,0.8-1.6,0.9-1.7c0,0,0.1-0.1,0.1-0.1c1.6-1.3,2.5-3.1,2.5-5.1C17.8,8.1,14.9,5.2,11.3,5.2z M12.5,23.1H10l-0.1-0.4h2.7
		L12.5,23.1z M12.8,21.9h-3l-0.1-0.4h3.2L12.8,21.9z M13.1,20.6H9.5L9.1,19h4.3L13.1,20.6z M14.7,16.3
		C14.7,16.3,14.6,16.3,14.7,16.3c-0.4,0.3-1,0.9-1.2,1.9h-1.9v-5.7c0-0.4,0.4-0.8,0.8-0.8c0.2,0,0.4-0.2,0.4-0.4
		c0-0.2-0.2-0.4-0.4-0.4c-0.5,0-0.9,0.2-1.2,0.6c0,0,0-0.1-0.1-0.1c-0.3-0.3-0.7-0.5-1.1-0.5c0,0,0,0,0,0c-0.2,0-0.4,0.2-0.4,0.4
		c0,0.2,0.2,0.4,0.4,0.4c0,0,0,0,0,0c0,0,0,0,0,0c0.2,0,0.4,0.1,0.6,0.2c0.2,0.2,0.2,0.4,0.2,0.6v5.7H9c-0.1-1-0.8-1.6-1.1-1.9
		c0,0-0.1-0.1-0.1-0.1c-1.5-1.1-2.3-2.8-2.3-4.6C5.6,8.6,8.1,6,11.3,6c3.2,0,5.7,2.6,5.7,5.7C17,13.5,16.2,15.2,14.7,16.3z"/>
	<path fill="#9bb4b4" d="M11.4,3.6c0.2,0,0.4-0.2,0.4-0.4V0.4c0-0.2-0.2-0.4-0.4-0.4C11.2,0,11,0.2,11,0.4v2.8
		C11,3.4,11.2,3.6,11.4,3.6z"/>
	<path fill="#9bb4b4" d="M5.3,5.9C5.4,6,5.5,6,5.6,6c0.1,0,0.2,0,0.3-0.1C6,5.7,6,5.5,5.9,5.3L3.9,3.3c-0.2-0.2-0.4-0.2-0.6,0
		c-0.2,0.2-0.2,0.4,0,0.6L5.3,5.9z"/>
	<path fill="#9bb4b4" d="M3.6,11.4c0-0.2-0.2-0.4-0.4-0.4H0.4C0.2,11,0,11.2,0,11.4c0,0.2,0.2,0.4,0.4,0.4h2.8
		C3.4,11.8,3.6,11.6,3.6,11.4z"/>
	<path fill="#9bb4b4" d="M5.3,17l-2,1.9c-0.2,0.2-0.2,0.4,0,0.6c0.1,0.1,0.2,0.1,0.3,0.1c0.1,0,0.2,0,0.3-0.1l1.9-1.9
		C6,17.4,6,17.1,5.9,17C5.7,16.8,5.5,16.8,5.3,17z"/>
	<path fill="#9bb4b4" d="M17.6,17.3c-0.2-0.2-0.4-0.2-0.6,0c-0.2,0.2-0.2,0.4,0,0.6l1.9,2c0.1,0.1,0.2,0.1,0.3,0.1
		c0.1,0,0.2,0,0.3-0.1c0.2-0.2,0.2-0.4,0-0.6L17.6,17.3z"/>
	<path fill="#9bb4b4" d="M22.4,11l-2.8,0c-0.2,0-0.4,0.2-0.4,0.4c0,0.2,0.2,0.4,0.4,0.4l2.8,0c0.2,0,0.4-0.2,0.4-0.4
		C22.8,11.2,22.7,11,22.4,11z"/>
	<path fill="#9bb4b4" d="M17.3,6c0.1,0,0.2,0,0.3-0.1l1.9-1.9c0.2-0.2,0.2-0.4,0-0.6c-0.2-0.2-0.4-0.2-0.6,0L17,5.3
		c-0.2,0.2-0.2,0.4,0,0.6C17,6,17.2,6,17.3,6z"/>
</g>
</svg>
