<?xml version="1.0" encoding="utf-8"?>
<!-- Generator: Adobe Illustrator 18.1.0, SVG Export Plug-In . SVG Version: 6.00 Build 0)  -->
<!DOCTYPE svg PUBLIC "-//W3C//DTD SVG 1.1//EN" "http://www.w3.org/Graphics/SVG/1.1/DTD/svg11.dtd">
<svg version="1.1" id="Layer_1" xmlns="http://www.w3.org/2000/svg" xmlns:xlink="http://www.w3.org/1999/xlink" x="0px" y="0px"
	 viewBox="0 0 16.8 22.2" enable-background="new 0 0 16.8 22.2" xml:space="preserve">
<g>
	<path fill="#b8caca" d="M13.4,8.4c-0.2,0-0.4,0.2-0.4,0.4v12.6H0.8V3.8H8c0.2,0,0.4-0.2,0.4-0.4c0-0.2-0.2-0.4-0.4-0.4H0.4
		C0.2,2.9,0,3.1,0,3.3v18.4c0,0.2,0.2,0.4,0.4,0.4h13c0.2,0,0.4-0.2,0.4-0.4v-13C13.8,8.5,13.7,8.4,13.4,8.4z"/>
	<path fill="#b8caca" d="M12.2,0.8l-0.8,0.8l-9.6,9.6c-0.1,0.1-0.1,0.2-0.1,0.3v3.3c0,0.2,0.2,0.4,0.4,0.4l3.3,0
		c0.1,0,0.2,0,0.3-0.1L16,4.6c1.1-1.1,1.1-2.8,0-3.8C15-0.3,13.2-0.3,12.2,0.8z M2.5,14.3v-1.9l1.9,1.9L2.5,14.3z M5.4,14.1
		l-2.7-2.7l9-9l2.7,2.7L5.4,14.1z M14.9,4.6l-2.7-2.7l0.2-0.2l2.7,2.7L14.9,4.6z M15.7,3.7l-2.6-2.6c0.7-0.5,1.7-0.4,2.4,0.3
		C16.1,2,16.2,3,15.7,3.7z"/>
</g>
</svg>
