<?xml version="1.0" encoding="utf-8"?>
<!-- Generator: Adobe Illustrator 18.1.0, SVG Export Plug-In . SVG Version: 6.00 Build 0)  -->
<!DOCTYPE svg PUBLIC "-//W3C//DTD SVG 1.1//EN" "http://www.w3.org/Graphics/SVG/1.1/DTD/svg11.dtd">
<svg version="1.1" id="Layer_1" xmlns="http://www.w3.org/2000/svg" xmlns:xlink="http://www.w3.org/1999/xlink" x="0px" y="0px"
	 viewBox="0 0 13.3 13.9" enable-background="new 0 0 13.3 13.9" xml:space="preserve">
<g>
	<path fill="#b8caca" d="M12.9,11.8c-1.3,0-2.3-2.2-2.3-4.8V5.2c0-1.8-1.2-3.3-2.9-3.8c0.1-0.1,0.1-0.3,0.1-0.4C7.7,0.5,7.2,0,6.6,0
		C6.1,0,5.6,0.5,5.6,1.1c0,0.1,0,0.3,0.1,0.4C4,1.9,2.8,3.4,2.8,5.2V7c0,2.6-1.1,4.8-2.3,4.8C0.2,11.8,0,12,0,12.2
		c0,0.2,0.2,0.4,0.4,0.4H5c0.2,0.8,0.8,1.3,1.7,1.3c0.8,0,1.5-0.6,1.7-1.3h4.6c0.2,0,0.4-0.2,0.4-0.4C13.3,12,13.1,11.8,12.9,11.8z
		 M6.6,0.8c0.1,0,0.2,0.1,0.2,0.2c0,0.3-0.5,0.3-0.5,0C6.4,0.9,6.5,0.8,6.6,0.8z M6.6,13.1c-0.4,0-0.7-0.2-0.8-0.5h1.7
		C7.3,12.9,7,13.1,6.6,13.1z M8,11.8H5.3H2.1C3,10.8,3.6,9,3.6,7V5.2c0-1.7,1.4-3.1,3.1-3.1c1.7,0,3.1,1.4,3.1,3.1V7
		c0,2.1,0.6,3.8,1.5,4.8H8z"/>
</g>
</svg>
