<?xml version="1.0" encoding="utf-8"?>
<!-- Generator: Adobe Illustrator 18.1.0, SVG Export Plug-In . SVG Version: 6.00 Build 0)  -->
<!DOCTYPE svg PUBLIC "-//W3C//DTD SVG 1.1//EN" "http://www.w3.org/Graphics/SVG/1.1/DTD/svg11.dtd">
<svg version="1.1" id="Artboards" xmlns="http://www.w3.org/2000/svg" xmlns:xlink="http://www.w3.org/1999/xlink" x="0px" y="0px"
	 viewBox="0 0 255.1 141.7" enable-background="new 0 0 255.1 141.7" xml:space="preserve">
<g id="symbol-primary">
	<path fill="#B9CACB" d="M127.9,93.8c-0.5,0-0.9-0.3-1.2-0.7L109,62.7l-15,25c-0.4,0.6-1.2,0.8-1.9,0.5c-0.6-0.4-0.8-1.2-0.5-1.9
		l16.2-27c0.2-0.4,0.7-0.6,1.2-0.7c0.5,0,0.9,0.3,1.2,0.7l17.7,30.4l17.7-30.4c0.2-0.4,0.7-0.7,1.2-0.7c0.6,0,0.9,0.2,1.2,0.7
		l16.2,27c0.4,0.6,0.2,1.5-0.5,1.9c-0.6,0.4-1.5,0.2-1.9-0.5l-15-25l-17.8,30.4C128.9,93.6,128.4,93.8,127.9,93.8z"/>
	<path fill="#EB6470" d="M127.9,72.2c-6.7,0-12.2-5.5-12.2-12.2s5.5-12.2,12.2-12.2c6.7,0,12.2,5.5,12.2,12.2S134.6,72.2,127.9,72.2
		z M127.9,50.6c-5.2,0-9.5,4.2-9.5,9.5s4.2,9.5,9.5,9.5c5.2,0,9.5-4.2,9.5-9.5S133.1,50.6,127.9,50.6z"/>
</g>
</svg>
