<?xml version="1.0" encoding="utf-8"?>
<!-- Generator: Adobe Illustrator 18.1.0, SVG Export Plug-In . SVG Version: 6.00 Build 0)  -->
<!DOCTYPE svg PUBLIC "-//W3C//DTD SVG 1.1//EN" "http://www.w3.org/Graphics/SVG/1.1/DTD/svg11.dtd">
<svg version="1.1" id="Artboards" xmlns="http://www.w3.org/2000/svg" xmlns:xlink="http://www.w3.org/1999/xlink" x="0px" y="0px"
	 viewBox="0 0 255.1 141.7" enable-background="new 0 0 255.1 141.7" xml:space="preserve">
<g id="text-secondary">
	<g>
		<path fill="#70B4CA" d="M52.2,61.1c5.4,0,9.7,4.3,9.7,9.7c0,5.4-4.3,9.7-9.7,9.7s-9.7-4.3-9.7-9.7C42.5,65.5,46.8,61.1,52.2,61.1z
			 M52.2,78.7c4.3,0,7.8-3.5,7.8-7.8c0-4.3-3.5-7.9-7.8-7.9c-4.3,0-7.8,3.6-7.8,7.9C44.4,75.2,47.9,78.7,52.2,78.7z"/>
		<path fill="#70B4CA" d="M67.5,61.9c0-0.3,0.2-0.5,0.5-0.5h6c3.3,0,6,2.7,6,6c0,3.3-2.7,6.1-6,6.1h-4.5v6.3c0,0.3-0.2,0.5-0.5,0.5
			h-1c-0.3,0-0.5-0.2-0.5-0.5V61.9z M73.9,71.5c2.2,0,4.1-1.8,4.1-4.1c0-2.2-1.9-3.9-4.1-3.9h-4.3v8H73.9z"/>
		<path fill="#70B4CA" d="M83,79.4l8.4-8.7L83,62.3v-0.5c0-0.2,0.2-0.4,0.4-0.4h10.9c0.2,0,0.4,0.2,0.4,0.4V63
			c0,0.2-0.2,0.4-0.4,0.4h-7.8l6.5,6.2c0.1,0.1,0.4,0.4,0.4,0.7V71c0,0.3-0.3,0.5-0.4,0.7l-6.5,6.7h7.8c0.2,0,0.4,0.2,0.4,0.4v1.1
			c0,0.2-0.2,0.4-0.4,0.4H83.4c-0.2,0-0.4-0.2-0.4-0.4V79.4z"/>
		<path fill="#70B4CA" d="M99.9,61.6c0-0.3,0.2-0.5,0.5-0.5h0.7l12.2,15.2c0,0,0,0,0.1,0V61.9c0-0.3,0.2-0.5,0.5-0.5h0.9
			c0.3,0,0.5,0.2,0.5,0.5v18.2c0,0.3-0.2,0.5-0.5,0.5h-0.5l-12.4-15.5h0v14.7c0,0.3-0.2,0.5-0.5,0.5h-0.9c-0.3,0-0.5-0.2-0.5-0.5
			V61.6z"/>
	</g>
	<g>
		<path fill="#B9CACB" d="M124.3,61.5c0.1-0.2,0.3-0.4,0.5-0.4h0.4c0.2,0,0.4,0.1,0.5,0.3l5.3,14.9c0.1,0,0.1,0,0.1,0l5.3-14.9
			c0.1-0.2,0.3-0.3,0.5-0.3h0.4c0.2,0,0.4,0.2,0.5,0.4l3.5,18.1c0.1,0.4-0.1,0.6-0.5,0.6h-1.1c-0.2,0-0.4-0.2-0.5-0.4L136.8,66
			c0,0-0.1,0-0.1,0l-5,14.3c-0.1,0.2-0.3,0.3-0.5,0.3h-0.5c-0.2,0-0.4-0.1-0.5-0.3l-5-14.3c0,0-0.1,0-0.1,0l-2.3,13.9
			c0,0.2-0.3,0.4-0.5,0.4h-1.1c-0.4,0-0.6-0.3-0.5-0.6L124.3,61.5z"/>
		<path fill="#B9CACB" d="M145,79.6l8.2-18.2c0.1-0.2,0.2-0.3,0.5-0.3h0.3c0.2,0,0.4,0.1,0.5,0.3l8.1,18.2c0.2,0.4-0.1,0.7-0.5,0.7
			H161c-0.2,0-0.4-0.2-0.5-0.3l-2-4.5H149l-2,4.5c-0.1,0.1-0.2,0.3-0.5,0.3h-1.1C145.1,80.3,144.9,80,145,79.6z M157.8,73.9
			c-1.3-2.9-2.6-5.9-3.9-8.9h-0.2l-3.9,8.9H157.8z"/>
		<path fill="#B9CACB" d="M168.4,63.2h-4.7c-0.3,0-0.5-0.2-0.5-0.5v-0.8c0-0.3,0.2-0.5,0.5-0.5h11.4c0.3,0,0.5,0.2,0.5,0.5v0.8
			c0,0.3-0.2,0.5-0.5,0.5h-4.7v16.6c0,0.3-0.2,0.5-0.5,0.5h-1c-0.3,0-0.5-0.2-0.5-0.5V63.2z"/>
		<path fill="#B9CACB" d="M180.1,61.9c0-0.3,0.2-0.5,0.5-0.5h1.1c0.3,0,0.5,0.2,0.5,0.5v7.9h11v-7.9c0-0.3,0.2-0.5,0.5-0.5h1.1
			c0.3,0,0.5,0.2,0.5,0.5v17.9c0,0.3-0.2,0.5-0.5,0.5h-1.1c-0.3,0-0.5-0.2-0.5-0.5v-8.2h-11v8.2c0,0.3-0.2,0.5-0.5,0.5h-1.1
			c-0.3,0-0.5-0.2-0.5-0.5V61.9z"/>
		<path fill="#B9CACB" d="M200.9,77.5c0.1-0.2,0.3-0.4,0.4-0.5c0.3-0.4,0.6-0.6,0.9-0.2c0.2,0.2,2.2,2.1,4.6,2.1
			c2.2,0,3.6-1.4,3.6-3c0-1.9-1.6-3-4.7-4.3c-3-1.3-4.7-2.5-4.7-5.6c0-1.8,1.5-4.8,5.7-4.8c2.6,0,4.6,1.4,4.6,1.4
			c0.2,0.1,0.5,0.4,0.2,0.9c-0.1,0.2-0.2,0.4-0.3,0.5c-0.2,0.4-0.5,0.5-0.9,0.2c-0.2-0.1-1.9-1.2-3.5-1.2c-2.9,0-3.7,1.8-3.7,3
			c0,1.8,1.4,2.9,3.6,3.8c3.6,1.5,6,2.9,6,6c0,2.8-2.7,4.9-5.8,4.9c-3.2,0-5.3-1.9-5.7-2.2C200.9,78.2,200.6,78,200.9,77.5z"/>
	</g>
</g>
</svg>
